Coordinates
nRows=8
nColumns=24

# SIMM Motion File Header:
name Coordinates
datacolumns 24
datarows 8
otherdata 1
range 0.21332999999999999000 0.22033000000000000000
endheader
time	pelvis_tx	pelvis_ty	pelvis_tz	pelvis_tilt	pelvis_list	pelvis_rotation	hip_flexion_r	hip_adduction_r	hip_rotation_r	knee_angle_r	ankle_angle_r	subtalar_angle_r	mtp_angle_r	hip_flexion_l	hip_adduction_l	hip_rotation_l	knee_angle_l	ankle_angle_l	subtalar_angle_l	mtp_angle_l	lumbar_extension	lumbar_bending	lumbar_rotation
      0.21332999999999999000	      0.11899009087754939000	      0.88333326898796838000	     -0.23328515346902337000	      4.39255357668002850000	     -4.19114873861074870000	      4.63672337126934230000	     12.02292070732368700000	      6.12753418869115050000	      4.47243523237460130000	    -21.51776798494042000000	      7.01184796294054460000	      0.00000000000000415151	     -0.00000000000000364532	      6.50948619005213210000	    -11.76974903223351100000	      2.76609748151850750000	    -64.34117455741243000000	     -0.19403514043535186000	     -0.00000000000000040472	     -0.00000000000000125334	    -16.49473018058668900000	      7.10254467320795780000	      3.55475697426141530000
      0.21432999999999999000	      0.12005913569353903000	      0.88358824563254312000	     -0.23314084307273383000	      4.39030915310388090000	     -4.19434412710439640000	      4.59872795670221010000	     11.90455185816714400000	      6.14731837549465430000	      4.47326171206423060000	    -21.44415647148901300000	      7.04868563282564600000	      0.00000000000000415429	     -0.00000000000000383248	      6.66023889760029150000	    -11.74931127251150000000	      2.83824200610291880000	    -64.35331019672369700000	     -0.05639093015780786300	     -0.00000000000000042678	     -0.00000000000000123209	    -16.51216715572574100000	      7.07400219118009850000	      3.62417256132689490000
      0.21532999999999999000	      0.12112852264997007000	      0.88384726298812655000	     -0.23299518421096782000	      4.39161563713636660000	     -4.19756899823855620000	      4.55918521215475360000	     11.78164270735710100000	      6.16740306652087610000	      4.47305030268907360000	    -21.36844000262384200000	      7.07346262593843630000	      0.00000000000000415242	     -0.00000000000000404268	      6.80545368617697390000	    -11.72981973499939600000	      2.90709763369248320000	    -64.35979457590275400000	      0.06642380858033569700	     -0.00000000000000045323	     -0.00000000000000121386	    -16.53377688879555100000	      7.04535676614273140000	      3.69501305046171340000
      0.21632999999999999000	      0.12219837185660347000	      0.88411173837772727000	     -0.23284770178386280000	      4.39772231656404600000	     -4.20083276179802570000	      4.51754857362228000000	     11.65259464259021600000	      6.18789214422228890000	      4.47143177316808330000	    -21.28987451545794200000	      7.08192536684025240000	      0.00000000000000414424	     -0.00000000000000428405	      6.94317983721149990000	    -11.71160737787110800000	      2.97150104409273610000	    -64.35862864976516600000	      0.16917458347819914000	     -0.00000000000000048541	     -0.00000000000000120066	    -16.56102740865515700000	      7.01657061494122660000	      3.76777976858791420000
      0.21733000000000000000	      0.12326822106323687000	      0.88437621376732789000	     -0.23270021935675778000	      4.40382899599172540000	     -4.20409652535749420000	      4.47591193508980640000	     11.52354657782333000000	      6.20838122192370180000	      4.46981324364709300000	    -21.21130902829204600000	      7.09038810774206850000	      0.00000000000000413605	     -0.00000000000000452542	      7.08090598824602590000	    -11.69339502074282100000	      3.03590445449298900000	    -64.35746272362756300000	      0.27192535837606258000	     -0.00000000000000051758	     -0.00000000000000118746	    -16.58827792851476700000	      6.98778446373972080000	      3.84054648671411550000
      0.21833000000000000000	      0.12433828545636022000	      0.88464360242055762000	     -0.23255046158487699000	      4.41427133473006170000	     -4.20707165058654020000	      4.43113135047482490000	     11.38870631896982400000	      6.22871578829733070000	      4.46549668053034930000	    -21.12951516947536800000	      7.08395796774856650000	      0.00000000000000410643	     -0.00000000000000474118	      7.21064597863539800000	    -11.67648863505568900000	      3.09315206018711340000	    -64.34458618435701300000	      0.35341295295233599000	     -0.00000000000000053330	     -0.00000000000000118548	    -16.62066485472589200000	      6.95826179439844060000	      3.91540473311029210000
      0.21933000000000000000	      0.12540836797047569000	      0.88491123640158331000	     -0.23240051220475547000	      4.42507878211569320000	     -4.21002246939692530000	      4.38608601214671620000	     11.25337829574271200000	      6.24903734317309120000	      4.46095291427656980000	    -21.04744944741439000000	      7.07627368871682450000	      0.00000000000000407499	     -0.00000000000000495479	      7.33971344932215870000	    -11.65969222606001700000	      3.14979707098404840000	    -64.33072348685455200000	      0.43310996149586850000	     -0.00000000000000054763	     -0.00000000000000118444	    -16.65348432100545400000	      6.92867710239291230000	      3.99043910844158890000
      0.22033000000000000000	      0.12647817943092482000	      0.88517642657798323000	     -0.23225018066727565000	      4.43549485600348790000	     -4.21265459180958590000	      4.34006314046321950000	     11.11838808506782600000	      6.26887195309680130000	      4.45531885416952010000	    -20.96525700458689900000	      7.07208041586431780000	      0.00000000000000402215	     -0.00000000000000517518	      7.46825793009756820000	    -11.64289770973199400000	      3.20389692784252040000	    -64.31318184913723700000	      0.51386410276819117000	     -0.00000000000000056644	     -0.00000000000000115317	    -16.68589623199591200000	      6.89855264525147320000	      4.06563811877400560000
